<?xml version="1.0" encoding="UTF-8"?>
<svg version="1.1" xmlns="http://www.w3.org/2000/svg" width="800" height="600">
<path d="M0 0 C6.43118199 0 12.32725908 0.1228381 18.625 0.9375 C31.05418967 2.52947401 43.46176234 3.05030319 55.98046875 3.17578125 C57.04906128 3.18778061 58.11765381 3.19977997 59.21862793 3.21214294 C63.6474696 3.2604584 68.07604315 3.3080015 72.50512695 3.32592773 C98.56511498 3.45118834 121.33912859 6.70106285 143 22 C143.75796875 22.52078125 144.5159375 23.0415625 145.296875 23.578125 C145.85890625 24.04734375 146.4209375 24.5165625 147 25 C147 25.66 147 26.32 147 27 C147.80179688 26.3709375 148.60359375 25.741875 149.4296875 25.09375 C162.55169957 15.0972411 176.61955533 8.48686801 193 6 C193.999104 5.83032715 194.99820801 5.6606543 196.02758789 5.48583984 C200.89402747 4.79668395 205.76463989 4.80617714 210.671875 4.75390625 C212.78963742 4.72243835 214.90739443 4.69060499 217.02514648 4.65844727 C218.6741243 4.6353801 218.6741243 4.6353801 220.35641479 4.61184692 C245.8105981 4.24171163 270.6553471 2.6678582 296 0 C296 27.72 296 55.44 296 84 C276.8309063 91.18841014 255.18896827 89.58448258 234.91870117 89.95361328 C203.13850871 90.547401 176.30357324 93.7983445 152.8125 117 C151.86866029 117.99401853 150.92985908 118.99289109 150 120 C149.34 120.66 148.68 121.32 148 122 C147.17757812 121.14277344 146.35515625 120.28554688 145.5078125 119.40234375 C124.86365824 98.13939348 103.02191596 90.22019502 73.73828125 89.5703125 C72.34268951 89.53478086 70.94711561 89.49854209 69.55155945 89.4616394 C63.67318357 89.30664314 57.79472818 89.15719918 51.91577148 89.02587891 C8.06874071 88.03437036 8.06874071 88.03437036 0 84 C0 56.28 0 28.56 0 0 Z " fill="#EB2029" transform="translate(251,154)"/>
<path d="M0 0 C7.8798305 7.39115884 15.21056386 16.67399196 15.96068764 27.90649033 C15.97145521 28.71833912 15.98222279 29.53018791 15.99331665 30.36663818 C16.00769775 31.30296082 16.02207886 32.23928345 16.03689575 33.20397949 C16.05271194 34.73447937 16.05271194 34.73447937 16.06884766 36.29589844 C16.08345032 37.3760321 16.09805298 38.45616577 16.11309814 39.56903076 C16.23892179 49.51571164 16.30780572 59.46317827 16.36094093 69.41048813 C16.39673888 76.09165482 16.44881625 82.77158265 16.54638672 89.45214844 C16.63919794 95.91486093 16.68785977 102.37651021 16.70533371 108.83985138 C16.7194261 111.30069969 16.74906098 113.76151062 16.79463577 116.22197723 C16.85539039 119.66975697 16.85936102 123.11331756 16.85009766 126.56152344 C16.88088409 127.57375977 16.91167053 128.58599609 16.94338989 129.62890625 C16.87994212 133.98025808 16.67306731 136.63991508 13.85429001 140.07126617 C11.59039812 142.1132389 9.30403513 143.93337395 6.8125 145.6875 C6.2406579 146.10427883 5.6688158 146.52105766 5.07964516 146.95046616 C-15.57827947 161.12859609 -43.83077531 164.86556104 -68.07080078 160.50756836 C-72.13962571 159.67873365 -76.16428552 158.71304191 -80.1875 157.6875 C-80.91630371 157.51089844 -81.64510742 157.33429688 -82.39599609 157.15234375 C-94.64135063 154.14461509 -104.54623419 149.20178381 -116.1875 143.6875 C-116.1875 112.6675 -116.1875 81.6475 -116.1875 49.6875 C-111.88462175 51.4086513 -110.10731586 52.41074989 -106.8125 55.3125 C-88.0428563 70.63919131 -64.12524305 77.53490444 -40.1875 75.6875 C-31.02621466 74.39032685 -23.00834223 70.47577076 -15.1875 65.6875 C-29.35034717 56.33467639 -43.90807688 53.16190544 -60.3359375 49.84765625 C-78.0728027 46.22589018 -93.01675868 39.12797821 -104.0390625 24.17578125 C-107.36204429 19.03382128 -109.39340411 14.86462343 -109.1875 8.6875 C-102.65152913 -3.23474085 -86.56355471 -9.17013873 -74.1875 -13.3125 C-49.34950905 -20.37522193 -19.94407052 -17.30266832 0 0 Z " fill="#737373" transform="translate(534.1875,285.3125)"/>
<path d="M0 0 C0 27.72 0 55.44 0 84 C-19.1690937 91.18841014 -40.81103173 89.58448258 -61.08129883 89.95361328 C-88.78656955 90.47126432 -114.51465848 91.80720155 -135.97265625 111.19140625 C-140.19544591 113.71418252 -142.2752214 113.07494963 -147 112 C-148.9786969 110.0213031 -148.18787707 106.13071064 -148.20874023 103.42260742 C-148.21852402 102.62909378 -148.2283078 101.83558014 -148.23838806 101.01802063 C-148.26840989 98.38052059 -148.28974612 95.74307149 -148.30859375 93.10546875 C-148.31516558 92.20670832 -148.3217374 91.30794788 -148.32850838 90.38195229 C-148.36113188 85.62468668 -148.38557526 80.86744376 -148.4050293 76.11010742 C-148.42285048 72.16674304 -148.45767861 68.2240927 -148.50756836 64.28100586 C-148.5676557 59.52706856 -148.59848938 54.773794 -148.60820198 50.01949501 C-148.61677799 48.2057252 -148.63564876 46.3919741 -148.6649456 44.57842064 C-148.70374348 42.04001605 -148.70491114 39.50420544 -148.69702148 36.96557617 C-148.71702209 36.21476776 -148.73702271 35.46395935 -148.75762939 34.69039917 C-148.72825623 32.58732605 -148.72825623 32.58732605 -148 29 C-145.12049866 26.65840149 -145.12049866 26.65840149 -142 25 C-139.65713612 22.76870107 -137.43937279 20.50344798 -135.3125 18.06640625 C-132.38185434 15.44763673 -129.1998498 13.9647612 -125.625 12.4375 C-124.9225415 12.13376465 -124.22008301 11.8300293 -123.49633789 11.51708984 C-116.81241249 8.73593981 -110.15577469 7.14141191 -103 6 C-101.9994458 5.82960205 -100.9988916 5.6592041 -99.96801758 5.48364258 C-95.07336486 4.8870569 -90.25438151 4.80637867 -85.328125 4.75390625 C-83.21003705 4.72243907 -81.09195452 4.6906057 -78.97387695 4.65844727 C-77.87451813 4.64306915 -76.7751593 4.62769104 -75.64248657 4.61184692 C-52.57472025 4.27630446 -29.57409739 3.84167563 -6.72265625 0.3671875 C-4 0 -4 0 0 0 Z " fill="#AF1F22" transform="translate(547,154)"/>
<path d="M0 0 C23.65917106 -0.76319907 46.76007688 2.14607759 66 17 C67.08667969 17.79664063 67.08667969 17.79664063 68.1953125 18.609375 C77.34815501 25.859862 85.88014269 38.08237525 87.36084747 49.87349319 C87.48873389 53.06463331 87.49532015 56.23282503 87.45410156 59.42626953 C87.45468567 60.62741898 87.45526978 61.82856842 87.45587158 63.06611633 C87.45357842 66.32809831 87.43365518 69.58937486 87.40557575 72.85121775 C87.3804034 76.27178226 87.37820773 79.69236374 87.37347412 83.11300659 C87.36109045 89.57621888 87.32833217 96.03915735 87.28807616 102.5022496 C87.23880497 110.58998866 87.2170461 118.6777731 87.1953125 126.765625 C87.15646519 141.17729609 87.07631931 155.58837056 87 170 C60.93 170 34.86 170 8 170 C7.96261719 158.98753906 7.92523438 147.97507812 7.88671875 136.62890625 C7.85644234 129.65168013 7.82541815 122.6744706 7.79101562 115.69726562 C7.73655151 104.62314359 7.68513754 93.54906764 7.65356445 82.47485352 C7.63055462 74.4091204 7.59712328 66.34350848 7.55129844 58.27787155 C7.52740643 54.00914376 7.50865134 49.7405357 7.50238609 45.47174263 C7.49631698 41.4489523 7.47625162 37.42646817 7.44572449 33.40379143 C7.43697342 31.93210353 7.43321557 30.46037557 7.43499184 28.98866272 C7.44363972 18.5118127 7.12456829 10.10726736 0 2 C0 1.34 0 0.68 0 0 Z " fill="#4D4B4C" transform="translate(302,270)"/>
<path d="M0 0 C4.16476656 3.90648646 7.78727145 7.83768047 10.8125 12.6875 C11.225 13.33847656 11.6375 13.98945313 12.0625 14.66015625 C15.7659792 21.53988324 16.21971995 29.08536764 14.8125 36.6875 C12.43772426 41.30913615 9.32673271 44.88734599 5.8125 48.6875 C4.96171875 49.68136719 4.1109375 50.67523438 3.234375 51.69921875 C-1.14431444 56.72933898 -5.36670256 61.36133004 -11.1875 64.6875 C-12.6725 64.1925 -12.6725 64.1925 -14.1875 63.6875 C-14.5175 63.0275 -14.8475 62.3675 -15.1875 61.6875 C-16.0640625 61.74292969 -16.940625 61.79835938 -17.84375 61.85546875 C-21.58282051 61.66764161 -23.42449618 60.7794128 -26.6875 59 C-36.67416211 54.14966239 -47.55343987 52.43054437 -58.36914062 50.24707031 C-76.87318284 46.51120935 -92.47084071 39.86853781 -104.0390625 24.17578125 C-107.36204429 19.03382128 -109.39340411 14.86462343 -109.1875 8.6875 C-102.65152913 -3.23474085 -86.56355471 -9.17013873 -74.1875 -13.3125 C-49.34950905 -20.37522193 -19.94407052 -17.30266832 0 0 Z " fill="#514D4E" transform="translate(534.1875,285.3125)"/>
<path d="M0 0 C0 27.72 0 55.44 0 84 C-8.08942705 87.03353514 -13.61717372 88.14453149 -22 88 C-22 87.67 -22 87.34 -22 87 C-16.72 86.34 -11.44 85.68 -6 85 C-6 84.34 -6 83.68 -6 83 C-4.35 83 -2.7 83 -1 83 C-1 56.6 -1 30.2 -1 3 C-4.63 3.66 -8.26 4.32 -12 5 C-15.14034103 5.24605257 -18.23288856 5.45086519 -21.375 5.5625 C-22.9037848 5.62288058 -24.43244243 5.68658911 -25.9609375 5.75390625 C-26.61884277 5.77783447 -27.27674805 5.8017627 -27.95458984 5.82641602 C-30.04965827 5.95761304 -30.04965827 5.95761304 -32.25308228 6.5057373 C-35.23298228 7.04192133 -37.96891827 7.10581627 -40.99609375 7.08178711 C-42.18082275 7.0752562 -43.36555176 7.06872528 -44.58618164 7.06199646 C-45.8571167 7.05056107 -47.12805176 7.03912567 -48.4375 7.02734375 C-50.44329215 7.01793487 -52.44908443 7.00853768 -54.45487976 6.99983311 C-59.39088134 6.97692857 -64.3267986 6.94326247 -69.26269531 6.90405273 C-72.03653956 6.88242504 -74.81032022 6.86617287 -77.58422852 6.85560608 C-80.19413938 6.84526534 -82.80403335 6.8266955 -85.41381836 6.79905701 C-86.59854736 6.79567825 -87.78327637 6.7922995 -89.00390625 6.78881836 C-90.56347046 6.77763222 -90.56347046 6.77763222 -92.15454102 6.76622009 C-95.14543522 7.0119488 -97.27127935 7.7952271 -100 9 C-102.53617615 9.34388829 -105.04402483 9.49886131 -107.59765625 9.65625 C-110.16381707 10.02344049 -111.72609678 10.78552896 -114 12 C-115.9670345 12.74135826 -117.94757702 13.44747263 -119.9375 14.125 C-121.46697266 14.65480469 -121.46697266 14.65480469 -123.02734375 15.1953125 C-125.84947867 15.95925441 -128.09707535 16.16038258 -131 16 C-116.46991757 3.89746161 -92.69085046 4.58142291 -74.88809204 4.46096802 C-69.34808901 4.42112455 -63.80891647 4.33203084 -58.26953125 4.2421875 C-57.19311874 4.22525345 -56.11670624 4.2083194 -55.00767517 4.19087219 C-38.83890754 3.90892096 -22.71889618 2.79936433 -6.72265625 0.3671875 C-4 0 -4 0 0 0 Z " fill="#C5767A" transform="translate(547,154)"/>
<path d="M0 0 C6.43118199 0 12.32725908 0.1228381 18.625 0.9375 C31.05418967 2.52947401 43.46176234 3.05030319 55.98046875 3.17578125 C57.04906128 3.18778061 58.11765381 3.19977997 59.21862793 3.21214294 C63.6474696 3.2604584 68.07604315 3.3080015 72.50512695 3.32592773 C91.54805657 3.41745997 110.68849287 4.25464236 128 13 C126.3515625 14.140625 126.3515625 14.140625 124 15 C121.3359375 14.171875 121.3359375 14.171875 118.375 12.75 C113.53409827 10.56416952 109.09786386 9.19423666 103.86328125 8.359375 C102 8 102 8 101 7 C99.35856611 6.88210925 97.71216372 6.83266712 96.06665039 6.81054688 C95.00946304 6.79382935 93.9522757 6.77711182 92.86305237 6.7598877 C91.70297165 6.74631226 90.54289093 6.73273682 89.34765625 6.71875 C87.5445121 6.69113586 87.5445121 6.69113586 85.7049408 6.66296387 C81.82417896 6.6040144 77.94336735 6.55149784 74.0625 6.5 C59.14227334 6.29502289 44.22292959 6.07398316 29.30859375 5.59375 C28.20983414 5.56478638 27.11107452 5.53582275 25.97901917 5.50598145 C24.97072556 5.46984741 23.96243195 5.43371338 22.92358398 5.39648438 C22.0413768 5.36824585 21.15916962 5.34000732 20.25022888 5.31091309 C18 5 18 5 15 3 C12.61322924 2.70547416 10.21373906 2.5071783 7.8125 2.375 C6.54019531 2.30023438 5.26789063 2.22546875 3.95703125 2.1484375 C2.98121094 2.09945312 2.00539062 2.05046875 1 2 C1.03800621 12.3791083 1.0972935 22.75785447 1.18390274 33.13667774 C1.22344535 37.95579725 1.25560039 42.77473219 1.27099609 47.59399414 C1.28611821 52.2431762 1.32048392 56.89185104 1.36830902 61.54080772 C1.38316889 63.31620569 1.39104364 65.09167605 1.39188385 66.867136 C1.39424152 69.35053482 1.42122173 71.83251806 1.45410156 74.31567383 C1.4490712 75.05294708 1.44404083 75.79022034 1.43885803 76.54983521 C1.5085241 79.94108239 1.54606357 81.55808042 4.03411865 83.98027039 C4.6828595 84.31678116 5.33160034 84.65329193 6 85 C4.02 84.67 2.04 84.34 0 84 C0 56.28 0 28.56 0 0 Z " fill="#D96367" transform="translate(251,154)"/>
<path d="M0 0 C0.66 0.33 1.32 0.66 2 1 C0.33333333 2.66666667 -1.33333333 4.33333333 -3 6 C-3.53625 6.5775 -4.0725 7.155 -4.625 7.75 C-6 9 -6 9 -9 10 C-9 37.06 -9 64.12 -9 92 C-7.68 92.33 -6.36 92.66 -5 93 C-4.01 93.66 -3.02 94.32 -2 95 C-4.31 97.64 -6.62 100.28 -9 103 C-16.57142857 96.71428571 -16.57142857 96.71428571 -19 93 C-18.13375 93.4640625 -18.13375 93.4640625 -17.25 93.9375 C-15.15095893 94.92871384 -13.24925862 95.47548801 -11 96 C-11.01486996 84.87311663 -11.05644151 73.74668395 -11.13209057 62.62003803 C-11.16637916 57.4534201 -11.19147347 52.28709844 -11.19555664 47.12036133 C-11.19983555 42.13396144 -11.22826458 37.14823012 -11.27343178 32.1620388 C-11.28641979 30.2598987 -11.29070985 28.35767864 -11.28615379 26.45549965 C-11.281257 23.79031848 -11.30729779 21.12709829 -11.34057617 18.4621582 C-11.33195053 17.67597107 -11.32332489 16.88978394 -11.31443787 16.07977295 C-11.40087995 11.94925926 -11.77751179 10.25424075 -14.54121399 7.09611511 C-15.35261337 6.40439713 -16.16401276 5.71267914 -17 5 C-17 4.34 -17 3.68 -17 3 C-15 4 -13 5 -11 6 C-11 6.66 -11 7.32 -11 8 C-7.37 5.36 -3.74 2.72 0 0 Z " fill="#D02428" transform="translate(409,173)"/>
<path d="M0 0 C5.625 2.25 5.625 2.25 8 6 C6.35 6 4.7 6 3 6 C2.97686548 17.30884557 2.95907923 28.61768553 2.94818783 39.92654991 C2.94296144 45.17727873 2.93586819 50.42799141 2.92456055 55.67871094 C2.91372304 60.74261255 2.90772132 65.8064986 2.90512276 70.87041092 C2.90327007 72.80577464 2.89965244 74.74113748 2.89426994 76.6764946 C2.88704808 79.37988907 2.88600955 82.08321859 2.88647461 84.78662109 C2.88287933 85.59294479 2.87928406 86.39926849 2.87557983 87.23002625 C2.79051357 91.24518037 2.79051357 91.24518037 4 95 C2.68 94.67 1.36 94.34 0 94 C0 62.98 0 31.96 0 0 Z " fill="#AFAFAF" transform="translate(418,335)"/>
<path d="M0 0 C43.56 0.99 43.56 0.99 88 2 C88 2.99 88 3.98 88 5 C17.10767505 3.62606636 17.10767505 3.62606636 0 1 C0 0.67 0 0.34 0 0 Z " fill="#E67378" transform="translate(258,239)"/>
<path d="M0 0 C0 27.72 0 55.44 0 84 C-8.08942705 87.03353514 -13.61717372 88.14453149 -22 88 C-22 87.67 -22 87.34 -22 87 C-16.72 86.34 -11.44 85.68 -6 85 C-6 84.34 -6 83.68 -6 83 C-4.35 83 -2.7 83 -1 83 C-1 55.94 -1 28.88 -1 1 C-1.99 1.495 -1.99 1.495 -3 2 C-5.6723621 2.13415472 -8.32250488 2.04318541 -11 2 C-11 1.67 -11 1.34 -11 1 C-7.26513121 0.4254048 -3.78706732 0 0 0 Z " fill="#E0A9AA" transform="translate(547,154)"/>
<path d="M0 0 C0 0.66 0 1.32 0 2 C-7.55623949 3.71430103 -14.99833579 4.3432846 -22.71630859 4.65795898 C-26.59951847 4.82394783 -30.18583029 5.22211013 -34 6 C-36.20623012 6.11485217 -38.41581889 6.17480356 -40.625 6.1875 C-41.75164062 6.20167969 -42.87828125 6.21585938 -44.0390625 6.23046875 C-47 6 -47 6 -50 4 C-45.10707906 2.82506559 -40.17971318 2.57910493 -35.17578125 2.24609375 C-33.76186348 2.14833397 -33.76186348 2.14833397 -32.31938171 2.04859924 C-29.31728704 1.84186328 -26.31490243 1.63971194 -23.3125 1.4375 C-21.28057952 1.2978085 -19.24867822 1.15783768 -17.21679688 1.01757812 C-9.79720205 0.50865007 -9.79720205 0.50865007 -6.0949707 0.25952148 C-5.35060257 0.20924301 -4.60623444 0.15896454 -3.83930969 0.10716248 C-2.56120879 0.03269733 -1.28026832 0 0 0 Z " fill="#BA6162" transform="translate(546,155)"/>
<path d="M0 0 C0.556875 0.680625 0.556875 0.680625 1.125 1.375 C3.54264685 3.47029394 5.95430602 4.12013285 9 5 C8.04270084 6.12588014 7.08412105 7.2506715 6.125 8.375 C5.59132813 9.00148438 5.05765625 9.62796875 4.5078125 10.2734375 C3.38567993 11.55836651 2.20628025 12.79371975 1 14 C-1.97 11.03 -4.94 8.06 -8 5 C-4.79604584 5 -2.90600261 5.74335022 0 7 C0 4.69 0 2.38 0 0 Z " fill="#AE262A" transform="translate(398,262)"/>
<path d="M0 0 C9.61629148 -0.31020295 18.91675483 -0.13331896 28.4375 1.375 C29.24743408 1.50108643 30.05736816 1.62717285 30.8918457 1.75708008 C34.51008751 2.3749603 36.90930491 2.93953661 40 5 C38.60386935 4.85704109 37.20810692 4.71048442 35.8125 4.5625 C35.03519531 4.48128906 34.25789063 4.40007812 33.45703125 4.31640625 C31 4 31 4 28.65966797 3.49072266 C24.23063606 2.67354309 19.80439124 2.81554535 15.3125 2.8125 C13.86907227 2.79413086 13.86907227 2.79413086 12.39648438 2.77539062 C11.47802734 2.77345703 10.55957031 2.77152344 9.61328125 2.76953125 C8.77579346 2.76542236 7.93830566 2.76131348 7.07543945 2.75708008 C4.77805428 2.80853888 4.77805428 2.80853888 3 5 C1.5 3.625 1.5 3.625 0 2 C0 1.34 0 0.68 0 0 Z " fill="#BEBDBD" transform="translate(302,270)"/>
<path d="M0 0 C10.61829669 0.88485806 20.43426067 3.24128624 30 8 C28.3515625 9.140625 28.3515625 9.140625 26 10 C23.3359375 9.171875 23.3359375 9.171875 20.375 7.75 C15.60995276 5.59466079 11.32790807 4.26148077 6.15625 3.5546875 C3.57130958 2.88972094 2.02658224 1.70417143 0 0 Z " fill="#E5767C" transform="translate(349,159)"/>
<path d="M0 0 C0.66 0.33 1.32 0.66 2 1 C0.33333333 2.66666667 -1.33333333 4.33333333 -3 6 C-3.7115625 6.86625 -3.7115625 6.86625 -4.4375 7.75 C-6.94626137 9.7570091 -8.81742881 10 -12 10 C-14.875 7.6875 -14.875 7.6875 -17 5 C-17 4.34 -17 3.68 -17 3 C-15 4 -13 5 -11 6 C-11 6.66 -11 7.32 -11 8 C-7.37 5.36 -3.74 2.72 0 0 Z " fill="#B5585C" transform="translate(409,173)"/>
<path d="M0 0 C0 0.33 0 0.66 0 1 C-0.90621094 1.18175781 -1.81242187 1.36351562 -2.74609375 1.55078125 C-9.68514432 2.98264883 -16.33711314 4.58757545 -23 7 C-22 4 -22 4 -19.9375 2.8125 C-19.298125 2.544375 -18.65875 2.27625 -18 2 C-18 1.67 -18 1.34 -18 1 C-11.95170514 0.10395632 -6.1105424 -0.11269443 0 0 Z " fill="#AF4245" transform="translate(456,243)"/>
<path d="M0 0 C0.33 0 0.66 0 1 0 C1 3.63 1 7.26 1 11 C1.66 11.33 2.32 11.66 3 12 C2.34 12.66 1.68 13.32 1 14 C-1.97 11.03 -4.94 8.06 -8 5 C-4.79604584 5 -2.90600261 5.74335022 0 7 C0 4.69 0 2.38 0 0 Z " fill="#DC686D" transform="translate(398,262)"/>
<path d="M0 0 C1.65 0 3.3 0 5 0 C5 0.66 5 1.32 5 2 C-2.09784913 3.81774185 -8.65081658 5.43230491 -16 5 C-16 4.67 -16 4.34 -16 4 C-10.72 3.34 -5.44 2.68 0 2 C0 1.34 0 0.68 0 0 Z " fill="#CD7F81" transform="translate(541,237)"/>
<path d="M0 0 C0.66 0 1.32 0 2 0 C0.77946141 3.66161578 -0.36782304 4.16270474 -3.5625 6.1875 C-4.38878906 6.71730469 -5.21507812 7.24710937 -6.06640625 7.79296875 C-6.70449219 8.19128906 -7.34257812 8.58960938 -8 9 C-8 7.68 -8 6.36 -8 5 C-7.34 5 -6.68 5 -6 5 C-5.67 4.01 -5.34 3.02 -5 2 C-3.35 2 -1.7 2 0 2 C0 1.34 0 0.68 0 0 Z " fill="#BF5F61" transform="translate(416,257)"/>
<path d="M0 0 C2.08412907 0.06023494 4.16744435 0.14908321 6.25 0.25 C7.41015625 0.29640625 8.5703125 0.3428125 9.765625 0.390625 C13 1 13 1 17 5 C8.585 3.02 8.585 3.02 0 1 C0 0.67 0 0.34 0 0 Z " fill="#EB9094" transform="translate(347,244)"/>
<path d="M0 0 C-0.9590625 0.1546875 -0.9590625 0.1546875 -1.9375 0.3125 C-2.618125 0.539375 -3.29875 0.76625 -4 1 C-4.33 1.99 -4.66 2.98 -5 4 C-6.98 4.33 -8.96 4.66 -11 5 C-8.45499142 -0.63537615 -5.97208347 -0.11059414 0 0 Z " fill="#B14448" transform="translate(421,170)"/>
<path d="M0 0 C0 0.33 0 0.66 0 1 C-0.61488281 1.12117188 -1.22976563 1.24234375 -1.86328125 1.3671875 C-2.67152344 1.53476562 -3.47976563 1.70234375 -4.3125 1.875 C-5.11300781 2.03742188 -5.91351563 2.19984375 -6.73828125 2.3671875 C-9.25301118 2.94478999 -9.25301118 2.94478999 -12 5 C-12 4.34 -12 3.68 -12 3 C-13.32 2.67 -14.64 2.34 -16 2 C-10.42932723 0.40837921 -5.78898419 -0.20674944 0 0 Z " fill="#A2A1A2" transform="translate(476,270)"/>
<path d="M0 0 C1.32 0.33 2.64 0.66 4 1 C0.8745041 3.64465038 -2.08788267 4.84414715 -6 6 C-6 5.01 -6 4.02 -6 3 C-4.35 3 -2.7 3 -1 3 C-0.67 2.01 -0.34 1.02 0 0 Z " fill="#C8787C" transform="translate(429,249)"/>
<path d="M0 0 C0 1.32 0 2.64 0 4 C-3.3 3.01 -6.6 2.02 -10 1 C-8.68 0.67 -7.36 0.34 -6 0 C-5.29875 -0.20625 -4.5975 -0.4125 -3.875 -0.625 C-2 -1 -2 -1 0 0 Z " fill="#828081" transform="translate(507,339)"/>
<path d="M0 0 C0.66 0.33 1.32 0.66 2 1 C0.68 2.65 -0.64 4.3 -2 6 C-3.65 5.67 -5.3 5.34 -7 5 C-4.88437775 2.67281553 -2.94982021 1.14186589 0 0 Z " fill="#888687" transform="translate(445,278)"/>
<path d="M0 0 C2 1 4 2 6 3 C6 3.66 6 4.32 6 5 C6.66 5.33 7.32 5.66 8 6 C7.01 6.33 6.02 6.66 5 7 C3.29115995 5.37660195 1.62553283 3.70680947 0 2 C0 1.34 0 0.68 0 0 Z " fill="#E3686F" transform="translate(392,176)"/>
<path d="M0 0 C0.66 0 1.32 0 2 0 C1.67 1.65 1.34 3.3 1 5 C-0.32 5.33 -1.64 5.66 -3 6 C-2 4 -1 2 0 0 Z " fill="#7E7B7C" transform="translate(429,288)"/>
<path d="M0 0 C0.66 0.66 1.32 1.32 2 2 C1.625 4.125 1.625 4.125 1 6 C-0.65 4.35 -2.3 2.7 -4 1 C-2.125 0.375 -2.125 0.375 0 0 Z " fill="#858384" transform="translate(519,346)"/>
<path d="M0 0 C1.875 0.3125 1.875 0.3125 4 1 C4.66 1.99 5.32 2.98 6 4 C4.35 4 2.7 4 1 4 C0.67 2.68 0.34 1.36 0 0 Z " fill="#A0A0A0" transform="translate(420,337)"/>
<path d="M0 0 C0.99 0.33 1.98 0.66 3 1 C3.33 3.31 3.66 5.62 4 8 C0 3.375 0 3.375 0 0 Z " fill="#929091" transform="translate(426,299)"/>
<path d="M0 0 C1.65 0 3.3 0 5 0 C3.35 1.65 1.7 3.3 0 5 C0 3.35 0 1.7 0 0 Z " fill="#C16566" transform="translate(402,267)"/>
<path d="M0 0 C2.97 0.495 2.97 0.495 6 1 C6.33 1.99 6.66 2.98 7 4 C4.97954558 3.39816251 2.97888961 2.72693904 1 2 C0.67 1.34 0.34 0.68 0 0 Z " fill="#E98587" transform="translate(369,251)"/>
<path d="M0 0 C0.66 0 1.32 0 2 0 C2 1.32 2 2.64 2 4 C1.01 4.33 0.02 4.66 -1 5 C-0.67 3.35 -0.34 1.7 0 0 Z " fill="#B64749" transform="translate(421,252)"/>
<path d="M0 0 C0.66 0.33 1.32 0.66 2 1 C1.01 2.485 1.01 2.485 0 4 C-1.32 3.67 -2.64 3.34 -4 3 C-2.68 2.01 -1.36 1.02 0 0 Z " fill="#C36B6F" transform="translate(409,173)"/>
<path d="M0 0 C4.75 0.75 4.75 0.75 7 3 C5.68 3.33 4.36 3.66 3 4 C2.67 3.01 2.34 2.02 2 1 C1.34 0.67 0.68 0.34 0 0 Z " fill="#ED878A" transform="translate(372,165)"/>
<path d="M0 0 C1.32 0.66 2.64 1.32 4 2 C2.02 2.99 2.02 2.99 0 4 C0 2.68 0 1.36 0 0 Z " fill="#878586" transform="translate(526,280)"/>
<path d="M0 0 C1.32 0 2.64 0 4 0 C4 0.66 4 1.32 4 2 C2.68 2.33 1.36 2.66 0 3 C0 2.01 0 1.02 0 0 Z " fill="#C26D70" transform="translate(423,252)"/>
</svg>
